<?xml version="1.0" encoding="UTF-8" ?>
<!DOCTYPE svg PUBLIC "-//W3C//DTD SVG 1.1//EN" "http://www.w3.org/Graphics/SVG/1.1/DTD/svg11.dtd">
<svg width="1601pt" height="304pt" viewBox="0 0 1601 304" version="1.1" xmlns="http://www.w3.org/2000/svg">
<path fill="#fefeff" d=" M 0.00 0.00 L 1601.00 0.00 L 1601.00 214.56 C 1600.39 206.58 1597.62 197.95 1590.58 193.39 C 1582.60 188.41 1572.25 188.56 1563.57 191.51 C 1554.41 194.70 1548.30 203.61 1546.98 213.00 C 1545.63 222.92 1546.30 234.05 1552.87 242.14 C 1559.08 249.72 1569.56 252.10 1578.96 251.36 C 1585.33 250.78 1592.12 249.41 1597.18 245.26 C 1599.52 241.24 1596.96 236.60 1594.17 233.54 C 1587.39 236.92 1579.57 240.38 1571.92 238.01 C 1566.69 236.31 1564.13 230.89 1563.41 225.81 C 1575.93 225.72 1588.47 225.80 1601.00 225.77 L 1601.00 304.00 L 0.00 304.00 L 0.00 205.74 C 0.61 208.13 1.62 210.92 4.29 211.63 C 7.84 212.36 11.47 211.44 15.05 211.53 C 56.38 211.49 97.70 211.52 139.03 211.51 C 158.02 212.03 177.03 211.66 196.03 211.77 C 202.43 211.88 208.91 211.32 215.23 212.56 C 218.55 213.00 220.60 215.89 223.26 217.61 C 225.25 218.99 227.68 219.68 229.49 221.32 C 231.04 226.24 229.34 231.77 231.70 236.56 C 234.69 242.30 239.80 247.69 246.68 248.00 C 248.06 251.46 250.43 254.48 253.85 256.10 C 263.65 261.13 272.69 267.48 282.34 272.78 C 283.73 273.65 285.32 274.44 286.20 275.90 C 286.17 281.31 284.16 286.46 283.80 291.85 C 282.04 294.36 279.19 297.21 280.54 300.55 C 281.63 303.49 285.26 303.76 287.87 302.99 C 298.02 300.61 308.54 299.76 318.36 296.07 C 322.15 294.61 326.37 295.45 330.15 294.01 C 336.80 291.20 344.54 292.55 350.88 288.75 C 357.23 284.87 364.70 283.78 371.63 281.35 C 376.54 279.70 382.01 278.61 385.84 274.86 C 388.07 272.77 389.40 268.59 386.66 266.36 C 382.35 264.32 377.53 266.05 373.00 265.74 C 369.87 265.17 367.35 262.52 364.05 262.65 C 355.05 263.27 347.17 268.96 338.05 268.95 C 327.43 268.87 316.72 270.11 306.69 273.73 C 306.24 271.56 305.75 269.41 305.22 267.27 C 308.72 265.00 313.61 263.28 314.76 258.81 C 314.07 255.51 312.08 252.56 312.02 249.12 C 311.68 241.40 314.00 233.80 313.53 226.08 C 313.46 221.87 306.22 221.70 306.07 225.94 C 305.63 236.52 302.30 247.43 305.86 257.81 C 302.80 259.70 299.18 260.96 296.83 263.78 C 295.12 266.51 297.29 269.55 298.29 272.13 C 296.95 273.67 295.62 275.23 294.34 276.83 C 294.03 272.93 292.04 269.35 288.59 267.40 C 277.51 261.00 266.75 254.03 255.53 247.87 C 254.29 245.41 253.37 242.47 250.90 240.96 C 248.81 239.96 246.43 239.90 244.18 239.53 C 241.92 237.20 239.06 235.01 238.34 231.67 C 237.48 226.82 238.88 221.39 236.07 217.01 C 234.40 214.16 231.13 213.06 228.46 211.42 C 225.61 209.77 223.56 206.87 220.35 205.83 C 212.50 203.31 204.15 204.13 196.04 204.00 C 179.36 203.91 162.68 204.23 146.02 203.75 C 111.69 203.74 77.37 203.75 43.04 203.75 C 31.28 203.87 19.52 203.48 7.77 203.99 C 7.76 199.75 7.75 195.51 7.84 191.27 C 10.84 189.88 13.95 188.66 16.70 186.79 C 20.26 184.36 22.83 180.76 26.45 178.42 C 29.47 176.42 32.97 175.15 35.68 172.70 C 38.21 170.44 39.29 167.05 41.68 164.68 C 44.77 162.06 49.26 160.76 50.96 156.77 C 52.45 153.61 50.81 150.29 49.76 147.29 C 48.09 143.43 50.38 139.14 48.98 135.23 C 48.04 132.56 45.21 131.50 42.91 130.30 C 42.82 128.90 42.74 127.50 42.65 126.11 C 52.92 122.06 63.83 118.63 75.01 119.64 C 79.65 120.22 84.32 118.88 88.93 119.86 C 92.37 120.49 95.84 121.03 99.22 121.94 C 103.27 122.96 105.73 127.16 109.96 127.72 C 114.82 128.41 119.16 125.39 123.95 125.28 C 127.99 125.17 131.99 126.12 136.03 125.96 C 140.17 125.77 143.90 123.74 147.91 122.93 C 150.32 122.34 152.85 122.15 155.17 121.23 C 157.35 119.83 158.61 117.43 160.62 115.83 C 162.72 114.15 165.02 112.75 167.20 111.18 C 170.89 107.73 177.13 110.62 180.41 106.40 C 184.80 101.01 181.08 94.07 180.35 88.10 C 180.84 85.50 183.16 83.67 184.43 81.41 C 187.54 77.19 186.94 70.47 182.60 67.31 C 180.41 65.75 177.58 66.61 175.11 66.56 C 180.31 61.53 187.57 59.58 192.92 54.77 C 195.37 52.59 197.91 50.51 200.37 48.34 C 203.92 45.42 202.44 39.90 205.61 36.69 C 209.91 31.92 215.48 28.53 220.00 23.98 C 225.64 18.38 232.39 13.95 239.74 10.91 C 245.24 8.61 251.26 10.15 257.00 10.05 C 268.67 10.43 280.34 9.76 292.01 9.66 C 299.49 9.73 306.91 7.57 314.37 8.82 C 312.62 12.84 311.72 17.32 314.08 21.32 C 313.03 26.22 311.34 31.60 313.62 36.41 C 315.22 39.26 320.73 38.36 320.55 34.79 C 320.19 30.79 320.76 26.85 321.81 22.99 C 322.64 20.42 321.49 17.91 320.60 15.54 C 321.42 13.12 322.75 10.60 322.00 7.99 C 321.31 4.44 318.17 1.81 314.72 1.12 C 307.52 -0.48 300.26 1.81 293.03 1.83 C 277.99 2.06 262.95 2.88 247.93 1.87 C 239.69 1.18 232.24 5.45 225.45 9.53 C 218.92 13.45 213.98 19.35 208.01 23.98 C 204.35 26.94 200.55 29.90 197.90 33.85 C 196.16 36.43 195.97 39.65 194.73 42.44 C 190.65 46.57 186.26 50.57 181.04 53.22 C 177.26 55.29 173.35 57.27 170.16 60.22 C 166.33 63.80 167.72 70.40 171.24 73.70 C 173.24 75.83 176.42 74.99 178.99 75.28 C 176.79 78.83 173.67 81.97 172.59 86.10 C 171.86 91.18 174.79 95.86 174.80 100.90 C 171.41 102.07 167.28 100.71 164.42 103.36 C 160.02 107.07 154.44 109.41 151.07 114.26 C 147.30 114.91 143.56 115.75 139.97 117.10 C 134.19 119.45 128.00 116.86 122.02 117.58 C 118.27 117.76 114.85 119.75 111.11 119.89 C 107.85 117.87 104.96 115.00 101.04 114.29 C 94.46 113.03 87.84 111.00 81.08 111.77 C 76.40 112.09 71.73 111.43 67.06 111.80 C 58.16 112.41 49.52 115.02 41.25 118.23 C 38.63 119.33 35.21 120.72 34.95 124.01 C 34.75 127.59 34.56 131.24 35.09 134.80 C 35.74 137.87 39.29 138.01 41.74 138.66 C 40.38 143.84 41.37 149.15 43.87 153.82 C 40.32 156.17 36.01 157.90 33.80 161.76 C 32.33 163.89 31.30 166.50 28.99 167.87 C 26.11 169.74 22.87 171.03 20.19 173.20 C 16.47 176.13 13.52 180.14 9.06 182.05 C 5.56 183.65 1.64 185.29 0.00 189.08 L 0.00 0.00 Z" />
<path fill="#0572a2" d=" M 293.03 1.83 C 300.26 1.81 307.52 -0.48 314.72 1.12 C 318.17 1.81 321.31 4.44 322.00 7.99 C 322.75 10.60 321.42 13.12 320.60 15.54 C 321.49 17.91 322.64 20.42 321.81 22.99 C 320.76 26.85 320.19 30.79 320.55 34.79 C 320.73 38.36 315.22 39.26 313.62 36.41 C 311.34 31.60 313.03 26.22 314.08 21.32 C 311.72 17.32 312.62 12.84 314.37 8.82 C 306.91 7.57 299.49 9.73 292.01 9.66 C 280.34 9.76 268.67 10.43 257.00 10.05 C 251.26 10.15 245.24 8.61 239.74 10.91 C 232.39 13.95 225.64 18.38 220.00 23.98 C 215.48 28.53 209.91 31.92 205.61 36.69 C 202.44 39.90 203.92 45.42 200.37 48.34 C 197.91 50.51 195.37 52.59 192.92 54.77 C 187.57 59.58 180.31 61.53 175.11 66.56 C 177.58 66.61 180.41 65.75 182.60 67.31 C 186.94 70.47 187.54 77.19 184.43 81.41 C 183.16 83.67 180.84 85.50 180.35 88.10 C 181.08 94.07 184.80 101.01 180.41 106.40 C 177.13 110.62 170.89 107.73 167.20 111.18 C 165.02 112.75 162.72 114.15 160.62 115.83 C 158.61 117.43 157.35 119.83 155.17 121.23 C 152.85 122.15 150.32 122.34 147.91 122.93 C 143.90 123.74 140.17 125.77 136.03 125.96 C 131.99 126.12 127.99 125.17 123.95 125.28 C 119.16 125.39 114.82 128.41 109.96 127.72 C 105.73 127.16 103.27 122.96 99.22 121.94 C 95.84 121.03 92.37 120.49 88.93 119.86 C 84.32 118.88 79.65 120.22 75.01 119.64 C 63.83 118.63 52.92 122.06 42.65 126.11 C 42.74 127.50 42.82 128.90 42.91 130.30 C 45.21 131.50 48.04 132.56 48.98 135.23 C 50.38 139.14 48.09 143.43 49.76 147.29 C 50.81 150.29 52.45 153.61 50.96 156.77 C 49.26 160.76 44.77 162.06 41.68 164.68 C 39.29 167.05 38.21 170.44 35.68 172.70 C 32.97 175.15 29.47 176.42 26.45 178.42 C 22.83 180.76 20.26 184.36 16.70 186.79 C 13.95 188.66 10.84 189.88 7.84 191.27 C 7.75 195.51 7.76 199.75 7.77 203.99 C 19.52 203.48 31.28 203.87 43.04 203.75 C 77.37 203.75 111.69 203.74 146.02 203.75 C 162.68 204.23 179.36 203.91 196.04 204.00 C 204.15 204.13 212.50 203.31 220.35 205.83 C 223.56 206.87 225.61 209.77 228.46 211.42 C 231.13 213.06 234.40 214.16 236.07 217.01 C 238.88 221.39 237.48 226.82 238.34 231.67 C 239.06 235.01 241.92 237.20 244.18 239.53 C 246.43 239.90 248.81 239.96 250.90 240.96 C 253.37 242.47 254.29 245.41 255.53 247.87 C 266.75 254.03 277.51 261.00 288.59 267.40 C 292.04 269.35 294.03 272.93 294.34 276.83 C 295.62 275.23 296.95 273.67 298.29 272.13 C 297.29 269.55 295.12 266.51 296.83 263.78 C 299.18 260.96 302.80 259.70 305.86 257.81 C 302.30 247.43 305.63 236.52 306.07 225.94 C 306.22 221.70 313.46 221.87 313.53 226.08 C 314.00 233.80 311.68 241.40 312.02 249.12 C 312.08 252.56 314.07 255.51 314.76 258.81 C 313.61 263.28 308.72 265.00 305.22 267.27 C 305.75 269.41 306.24 271.56 306.69 273.73 C 316.72 270.11 327.43 268.87 338.05 268.95 C 347.17 268.96 355.05 263.27 364.05 262.65 C 367.35 262.52 369.87 265.17 373.00 265.74 C 377.53 266.05 382.35 264.32 386.66 266.36 C 389.40 268.59 388.07 272.77 385.84 274.86 C 382.01 278.61 376.54 279.70 371.63 281.35 C 364.70 283.78 357.23 284.87 350.88 288.75 C 344.54 292.55 336.80 291.20 330.15 294.01 C 326.37 295.45 322.15 294.61 318.36 296.07 C 308.54 299.76 298.02 300.61 287.87 302.99 C 285.26 303.76 281.63 303.49 280.54 300.55 C 279.19 297.21 282.04 294.36 283.80 291.85 C 284.16 286.46 286.17 281.31 286.20 275.90 C 285.32 274.44 283.73 273.65 282.34 272.78 C 272.69 267.48 263.65 261.13 253.85 256.10 C 250.43 254.48 248.06 251.46 246.68 248.00 C 239.80 247.69 234.69 242.30 231.70 236.56 C 229.34 231.77 231.04 226.24 229.49 221.32 C 227.68 219.68 225.25 218.99 223.26 217.61 C 220.60 215.89 218.55 213.00 215.23 212.56 C 208.91 211.32 202.43 211.88 196.03 211.77 C 177.03 211.66 158.02 212.03 139.03 211.51 C 97.70 211.52 56.38 211.49 15.05 211.53 C 11.47 211.44 7.84 212.36 4.29 211.63 C 1.62 210.92 0.61 208.13 0.00 205.74 L 0.00 189.08 C 1.64 185.29 5.56 183.65 9.06 182.05 C 13.52 180.14 16.47 176.13 20.19 173.20 C 22.87 171.03 26.11 169.74 28.99 167.87 C 31.30 166.50 32.33 163.89 33.80 161.76 C 36.01 157.90 40.32 156.17 43.87 153.82 C 41.37 149.15 40.38 143.84 41.74 138.66 C 39.29 138.01 35.74 137.87 35.09 134.80 C 34.56 131.24 34.75 127.59 34.95 124.01 C 35.21 120.72 38.63 119.33 41.25 118.23 C 49.52 115.02 58.16 112.41 67.06 111.80 C 71.73 111.43 76.40 112.09 81.08 111.77 C 87.84 111.00 94.46 113.03 101.04 114.29 C 104.96 115.00 107.85 117.87 111.11 119.89 C 114.85 119.75 118.27 117.76 122.02 117.58 C 128.00 116.86 134.19 119.45 139.97 117.10 C 143.56 115.75 147.30 114.91 151.07 114.26 C 154.44 109.41 160.02 107.07 164.42 103.36 C 167.28 100.71 171.41 102.07 174.80 100.90 C 174.79 95.86 171.86 91.18 172.59 86.10 C 173.67 81.97 176.79 78.83 178.99 75.28 C 176.42 74.99 173.24 75.83 171.24 73.70 C 167.72 70.40 166.33 63.80 170.16 60.22 C 173.35 57.27 177.26 55.29 181.04 53.22 C 186.26 50.57 190.65 46.57 194.73 42.44 C 195.97 39.65 196.16 36.43 197.90 33.85 C 200.55 29.90 204.35 26.94 208.01 23.98 C 213.98 19.35 218.92 13.45 225.45 9.53 C 232.24 5.45 239.69 1.18 247.93 1.87 C 262.95 2.88 277.99 2.06 293.03 1.83 Z" />
<path fill="#0572a2" d=" M 701.38 2.38 C 703.90 0.32 708.04 2.63 707.49 5.94 C 707.55 103.31 707.48 200.67 707.53 298.04 C 707.47 299.55 707.49 301.24 706.47 302.47 C 703.82 303.97 699.26 302.97 700.01 299.09 C 700.00 201.39 700.00 103.68 700.00 5.97 C 699.89 4.62 700.29 3.25 701.38 2.38 Z" />
<path fill="#0572a2" d=" M 290.40 54.45 C 294.10 52.89 298.37 52.85 302.20 53.92 C 303.73 54.19 304.44 55.66 305.24 56.82 C 310.53 65.28 315.79 73.76 321.18 82.15 C 321.44 72.95 320.89 63.72 321.45 54.54 C 325.83 52.65 330.84 52.97 335.29 54.49 C 335.21 71.08 335.25 87.68 335.27 104.27 C 330.94 105.56 326.01 106.18 321.81 104.19 C 315.55 95.22 310.16 85.62 304.05 76.53 C 303.94 85.77 304.02 95.01 304.01 104.25 C 299.45 105.77 294.55 105.81 289.99 104.25 C 290.00 89.16 290.03 74.08 289.97 59.00 C 290.09 57.50 289.71 55.84 290.40 54.45 Z" />
<path fill="#0572a2" d=" M 344.75 53.23 C 355.22 53.21 365.69 53.27 376.16 53.19 C 377.48 56.40 378.09 60.21 376.19 63.34 C 370.40 63.80 364.58 63.37 358.78 63.52 C 358.77 66.51 358.77 69.49 358.78 72.48 C 363.13 72.49 367.48 72.49 371.83 72.48 C 373.36 75.83 373.28 79.56 371.95 82.96 C 367.56 83.04 363.16 82.99 358.77 83.00 C 358.77 87.07 358.77 91.15 358.78 95.22 C 365.11 95.25 371.45 95.19 377.78 95.27 C 379.07 98.53 378.90 102.06 377.94 105.38 C 366.88 105.68 355.81 105.44 344.75 105.51 C 344.75 88.08 344.74 70.66 344.75 53.23 Z" />
<path fill="#0572a2" d=" M 381.08 54.49 C 385.45 53.10 390.41 52.52 394.72 54.44 C 395.47 55.40 395.70 56.63 396.09 57.77 C 398.33 65.93 400.62 74.08 402.98 82.22 C 405.39 73.56 407.27 64.76 409.55 56.07 C 410.11 53.22 413.85 53.43 416.09 53.23 C 418.03 53.50 421.16 53.53 421.55 56.01 C 423.67 64.98 425.85 73.93 427.81 82.93 C 430.59 73.43 433.02 63.79 436.25 54.45 C 440.62 52.61 445.57 53.02 449.97 54.54 C 445.22 71.10 440.29 87.61 435.63 104.20 C 431.23 105.54 426.12 106.28 421.90 104.01 C 419.37 95.50 417.63 86.75 415.43 78.14 C 413.48 86.88 411.14 95.52 409.16 104.25 C 404.62 105.79 399.72 105.82 395.20 104.21 C 390.61 87.61 385.73 71.08 381.08 54.49 Z" />
<path fill="#0572a2" d=" M 460.38 54.79 C 464.80 53.21 470.07 52.27 474.36 54.63 C 478.08 60.38 481.69 66.35 483.85 72.90 C 485.72 66.63 489.49 61.22 492.73 55.62 C 493.64 53.73 496.00 53.58 497.83 53.32 C 501.10 52.88 504.36 53.69 507.41 54.85 C 502.06 64.32 496.36 73.62 491.18 83.18 C 490.21 90.10 491.03 97.22 490.79 104.21 C 486.32 105.87 481.47 105.77 476.99 104.26 C 476.88 97.29 477.25 90.29 476.82 83.33 C 471.64 73.66 465.74 64.37 460.38 54.79 Z" />
<path fill="#0572a2" d=" M 525.20 53.31 C 534.12 51.84 544.69 52.83 551.09 59.95 C 557.30 67.03 557.65 77.17 556.66 86.06 C 555.74 93.60 551.24 100.98 543.96 103.82 C 536.19 106.77 527.21 106.76 519.47 103.70 C 511.98 100.66 507.65 92.78 506.96 85.01 C 506.33 77.43 506.45 69.22 510.67 62.59 C 513.78 57.47 519.37 54.27 525.20 53.31 Z" />
<path fill="#0572a2" d=" M 564.24 55.21 C 574.18 52.21 585.47 51.31 595.16 55.61 C 603.59 59.45 605.16 71.20 600.40 78.46 C 598.97 80.83 596.66 82.43 594.44 83.98 C 598.42 90.61 602.49 97.19 606.35 103.90 C 601.54 105.26 595.99 106.50 591.35 104.05 C 587.82 98.91 585.26 93.16 581.87 87.94 C 581.22 86.54 579.57 86.59 578.32 86.18 C 578.18 92.21 578.28 98.25 578.25 104.28 C 573.67 105.72 568.75 105.88 564.21 104.21 C 564.27 87.88 564.20 71.54 564.24 55.21 Z" />
<path fill="#0572a2" d=" M 611.27 54.35 C 615.69 52.93 620.40 53.01 624.86 54.19 C 625.16 61.95 624.91 69.71 625.01 77.47 C 629.92 70.84 634.81 64.20 639.65 57.52 C 643.05 51.42 651.49 52.81 656.95 55.00 C 651.40 62.64 645.78 70.24 640.18 77.86 C 646.34 86.55 652.86 94.99 658.74 103.88 C 653.60 105.23 647.85 106.48 642.79 104.25 C 636.47 96.69 631.06 88.38 625.02 80.58 C 624.98 88.50 624.99 96.42 625.02 104.34 C 620.50 105.76 615.67 105.82 611.20 104.20 C 611.29 87.58 611.16 70.96 611.27 54.35 Z" />
<path fill="#0572a2" d=" M 750.05 56.39 C 762.81 53.29 776.28 51.98 789.23 54.66 C 797.67 56.42 805.78 61.27 809.98 69.00 C 815.41 78.67 815.73 90.18 815.04 100.98 C 814.22 110.69 811.07 120.88 803.44 127.41 C 795.17 134.62 783.64 136.23 773.04 136.00 C 765.28 135.77 757.56 134.69 750.00 132.91 C 750.03 107.41 749.93 81.90 750.05 56.39 Z" />
<path fill="#0572a2" d=" M 1069.02 60.04 C 1074.58 58.09 1080.68 58.06 1086.24 60.05 C 1086.26 64.95 1086.25 69.85 1086.25 74.75 C 1089.92 74.75 1093.58 74.76 1097.26 74.71 C 1099.22 78.32 1099.19 82.60 1097.43 86.28 C 1093.70 86.25 1089.97 86.25 1086.25 86.25 C 1086.26 96.19 1086.23 106.12 1086.25 116.05 C 1086.38 118.55 1086.39 121.88 1089.05 123.09 C 1091.93 124.08 1094.33 121.97 1096.28 120.16 C 1099.92 122.51 1101.79 127.30 1100.28 131.43 C 1097.97 134.58 1093.76 135.41 1090.11 135.86 C 1084.59 136.29 1078.29 136.02 1073.96 132.11 C 1069.70 127.95 1069.17 121.59 1069.01 115.98 C 1068.97 106.11 1069.01 96.25 1069.00 86.38 C 1065.57 86.69 1062.47 85.36 1059.81 83.33 C 1060.18 80.46 1060.61 77.59 1061.18 74.75 C 1063.78 74.75 1066.38 74.75 1069.00 74.75 C 1069.01 69.85 1068.97 64.94 1069.02 60.04 Z" />
<path fill="#0572a2" d=" M 1345.52 59.96 C 1351.02 58.15 1356.96 58.09 1362.48 59.91 C 1362.53 64.86 1362.50 69.80 1362.51 74.75 C 1366.25 74.99 1370.26 74.12 1373.83 75.26 C 1375.99 78.57 1375.24 82.69 1373.98 86.19 C 1370.14 86.27 1366.31 86.24 1362.49 86.30 C 1362.57 95.85 1362.43 105.41 1362.55 114.96 C 1362.75 117.71 1362.59 121.15 1365.13 122.94 C 1368.14 124.25 1370.70 121.92 1372.86 120.14 C 1376.48 122.67 1378.05 127.56 1376.59 131.69 C 1373.77 134.96 1369.11 135.66 1365.04 135.98 C 1359.88 136.17 1354.03 135.69 1350.17 131.86 C 1346.51 128.22 1345.74 122.80 1345.51 117.87 C 1345.43 107.38 1345.54 96.88 1345.47 86.38 C 1342.15 86.66 1339.15 85.43 1336.42 83.69 C 1336.51 80.67 1336.95 77.68 1337.63 74.74 C 1340.24 74.74 1342.86 74.74 1345.49 74.74 C 1345.48 69.82 1345.46 64.89 1345.52 59.96 Z" />
<path fill="#fefeff" d=" M 528.56 63.64 C 532.54 62.17 537.36 63.66 539.83 67.11 C 542.51 70.78 543.16 75.49 543.17 79.92 C 543.01 84.69 542.05 90.01 538.28 93.31 C 534.60 96.56 528.51 96.43 525.03 92.93 C 521.02 88.82 520.34 82.60 520.67 77.12 C 521.02 71.83 523.07 65.57 528.56 63.64 Z" />
<path fill="#fefeff" d=" M 578.33 63.30 C 580.88 63.22 583.70 62.69 586.01 64.13 C 589.55 66.04 590.07 71.50 587.14 74.18 C 584.82 76.49 581.27 76.14 578.28 76.34 C 578.24 71.99 578.21 67.65 578.33 63.30 Z" />
<path fill="#fefeff" d=" M 768.07 67.40 C 774.72 66.26 782.35 65.73 788.03 70.11 C 795.29 75.61 797.15 85.38 797.26 93.97 C 797.33 102.74 795.87 112.74 788.79 118.75 C 783.08 123.67 774.97 123.18 768.02 121.95 C 768.02 103.76 767.93 85.58 768.07 67.40 Z" />
<path fill="#0572a2" d=" M 828.34 86.40 C 832.60 79.22 840.65 74.92 848.86 74.24 C 857.80 73.15 868.30 75.43 873.51 83.43 C 878.91 91.27 878.36 101.18 878.24 110.25 C 865.76 110.27 853.28 110.23 840.81 110.27 C 841.35 115.46 844.06 120.93 849.37 122.59 C 856.91 124.71 864.68 121.70 871.24 118.08 C 873.95 120.55 876.14 124.14 875.25 127.94 C 875.08 130.51 872.32 131.41 870.40 132.44 C 860.53 136.77 848.72 137.45 838.74 133.15 C 830.81 129.75 825.71 121.75 824.39 113.41 C 822.96 104.34 823.52 94.45 828.34 86.40 Z" />
<path fill="#0572a2" d=" M 903.33 79.92 C 910.12 73.20 920.77 72.86 929.44 75.50 C 936.38 77.57 941.62 83.48 943.74 90.29 C 946.59 99.41 946.65 109.35 944.38 118.60 C 942.68 125.49 937.91 131.83 931.07 134.23 C 923.02 137.03 913.63 136.78 906.19 132.37 C 906.35 142.43 906.17 152.48 906.29 162.54 C 900.78 164.62 894.68 164.39 889.08 162.78 C 888.88 134.21 889.08 105.65 888.98 77.09 C 892.00 75.47 895.51 74.13 898.95 75.24 C 901.20 75.83 902.16 78.14 903.33 79.92 Z" />
<path fill="#0572a2" d=" M 957.01 80.42 C 967.13 74.71 979.39 72.25 990.76 75.31 C 996.67 76.86 1002.10 81.07 1004.01 87.03 C 1005.84 92.82 1005.10 98.99 1005.25 104.97 C 1005.38 111.21 1004.99 117.48 1005.41 123.71 C 1005.58 125.61 1008.12 125.41 1009.43 126.10 C 1009.78 127.65 1010.76 129.23 1010.36 130.86 C 1007.54 135.20 1001.66 137.29 996.83 135.25 C 994.21 134.41 992.45 132.21 990.88 130.09 C 984.20 134.58 975.77 137.45 967.74 135.28 C 960.92 133.62 955.19 127.95 953.85 121.01 C 952.99 116.11 953.20 110.58 956.25 106.43 C 959.34 102.04 964.77 100.12 969.88 99.33 C 975.91 98.63 982.05 98.88 988.04 99.93 C 987.98 95.76 988.44 90.19 984.08 87.92 C 976.67 84.70 968.83 88.24 962.07 91.35 C 957.72 89.69 956.56 84.59 957.01 80.42 Z" />
<path fill="#0572a2" d=" M 1036.14 80.06 C 1040.84 73.87 1051.04 71.55 1057.01 77.17 C 1059.26 81.20 1057.71 86.49 1054.38 89.47 C 1051.23 87.76 1047.72 86.11 1044.04 86.88 C 1039.70 87.53 1036.53 91.71 1036.54 96.00 C 1036.45 108.54 1036.55 121.08 1036.51 133.62 C 1030.99 135.77 1024.87 135.59 1019.29 133.78 C 1019.19 114.62 1019.19 95.46 1019.29 76.30 C 1024.53 74.57 1030.49 74.16 1035.67 76.31 C 1035.87 77.55 1036.03 78.80 1036.14 80.06 Z" />
<path fill="#0572a2" d=" M 1125.77 81.97 C 1130.58 76.62 1137.75 73.07 1145.06 74.18 C 1150.82 74.71 1156.21 77.78 1159.43 82.61 C 1163.32 78.56 1168.20 75.15 1173.90 74.39 C 1180.84 73.31 1189.06 74.34 1193.92 79.93 C 1197.95 84.61 1198.46 91.10 1198.27 97.01 C 1198.32 105.65 1198.07 114.30 1198.37 122.93 C 1198.19 126.12 1203.00 125.10 1203.33 128.02 C 1204.62 131.30 1201.33 133.67 1198.71 134.78 C 1193.40 136.80 1186.70 136.60 1182.28 132.72 C 1180.75 131.60 1180.99 129.60 1180.97 127.95 C 1181.01 117.29 1181.01 106.62 1180.99 95.96 C 1181.15 92.40 1179.64 88.19 1175.88 87.15 C 1170.71 85.50 1165.53 88.25 1162.21 92.12 C 1162.27 106.03 1162.31 119.95 1162.18 133.86 C 1156.68 135.54 1150.75 135.70 1145.29 133.80 C 1145.13 121.54 1145.30 109.28 1145.21 97.02 C 1145.17 93.60 1144.56 89.52 1141.27 87.69 C 1137.20 85.70 1132.11 86.84 1128.68 89.62 C 1127.62 90.52 1126.12 91.41 1126.30 93.02 C 1126.20 106.52 1126.24 120.03 1126.29 133.53 C 1120.83 135.86 1114.66 135.56 1109.09 133.79 C 1108.87 116.52 1109.09 99.24 1108.97 81.96 C 1108.99 80.08 1108.84 78.16 1109.32 76.32 C 1114.50 74.16 1120.45 74.57 1125.71 76.29 C 1125.74 78.18 1125.73 80.07 1125.77 81.97 Z" />
<path fill="#0572a2" d=" M 1216.90 82.89 C 1222.55 76.31 1231.59 73.78 1240.01 74.01 C 1247.44 74.15 1255.38 76.99 1259.54 83.50 C 1264.82 91.36 1264.38 101.20 1264.24 110.25 C 1251.76 110.26 1239.28 110.24 1226.79 110.26 C 1227.30 115.45 1230.06 120.89 1235.32 122.57 C 1242.81 124.70 1250.59 121.75 1257.12 118.13 C 1259.75 120.27 1261.72 123.40 1261.31 126.93 C 1261.70 130.29 1258.16 131.54 1255.75 132.73 C 1245.59 136.94 1233.40 137.48 1223.42 132.49 C 1215.36 128.50 1210.90 119.66 1210.02 111.01 C 1209.00 101.30 1210.19 90.48 1216.90 82.89 Z" />
<path fill="#0572a2" d=" M 1291.76 80.92 C 1298.49 73.62 1310.04 72.13 1318.88 76.15 C 1324.84 78.92 1327.83 85.66 1327.98 91.97 C 1328.14 102.33 1327.78 112.71 1328.13 123.07 C 1327.91 125.50 1330.66 125.68 1332.38 126.04 C 1332.83 128.07 1334.48 130.74 1332.20 132.26 C 1326.64 137.43 1316.30 137.55 1311.21 131.67 C 1310.62 119.43 1311.31 107.13 1310.88 94.88 C 1310.83 91.01 1308.11 86.92 1303.96 86.79 C 1299.24 86.03 1295.02 88.72 1291.99 92.06 C 1291.96 106.00 1292.10 119.94 1291.92 133.88 C 1286.43 135.66 1280.51 135.58 1275.05 133.79 C 1274.98 115.15 1274.96 96.50 1275.04 77.86 C 1274.66 75.97 1276.70 75.79 1278.00 75.40 C 1282.54 74.39 1287.31 74.85 1291.69 76.37 C 1291.71 77.88 1291.73 79.40 1291.76 80.92 Z" />
<path fill="#fefeff" d=" M 843.57 90.48 C 846.94 85.58 855.55 85.21 858.84 90.38 C 860.85 93.34 860.91 97.05 861.24 100.48 C 854.44 100.48 847.63 100.50 840.83 100.47 C 841.17 97.05 841.46 93.35 843.57 90.48 Z" />
<path fill="#fefeff" d=" M 906.24 90.10 C 910.67 86.80 916.86 85.54 922.01 87.86 C 926.51 90.03 928.01 95.34 928.52 99.92 C 928.97 105.81 929.14 112.08 926.60 117.55 C 924.88 121.19 920.88 123.32 916.93 123.26 C 913.25 123.39 908.84 122.84 906.37 119.84 C 906.05 109.94 906.37 100.01 906.24 90.10 Z" />
<path fill="#fefeff" d=" M 1229.51 90.51 C 1232.90 85.61 1241.45 85.21 1244.80 90.35 C 1246.81 93.32 1246.94 97.03 1247.13 100.48 C 1240.36 100.49 1233.59 100.50 1226.82 100.48 C 1227.15 97.06 1227.40 93.38 1229.51 90.51 Z" />
<path fill="#fefeff" d=" M 973.95 109.91 C 978.45 108.15 983.41 108.86 988.00 109.91 C 988.00 113.35 987.98 116.79 988.02 120.23 C 984.30 123.20 979.03 124.34 974.62 122.31 C 969.89 120.28 968.97 112.14 973.95 109.91 Z" />
<path fill="#0572a2" d=" M 452.44 125.64 C 457.50 124.85 463.29 125.28 467.36 128.72 C 471.17 131.98 472.31 137.29 472.39 142.09 C 472.44 147.00 471.78 152.45 468.13 156.08 C 464.53 159.86 458.87 160.49 453.93 160.02 C 449.13 159.70 444.24 157.10 442.34 152.50 C 439.93 146.86 439.96 140.30 441.73 134.49 C 443.18 129.73 447.58 126.33 452.44 125.64 Z" />
<path fill="#0572a2" d=" M 296.70 126.73 C 301.83 124.62 307.94 124.84 312.99 127.08 C 315.69 128.12 313.50 131.11 312.52 132.69 C 308.72 131.26 304.35 129.40 300.39 131.35 C 298.31 132.13 297.26 135.32 299.32 136.69 C 303.99 139.74 310.14 139.85 314.44 143.56 C 318.72 147.79 316.99 155.98 311.60 158.47 C 304.93 161.48 296.95 160.34 290.72 156.74 C 291.12 154.94 291.70 153.19 292.56 151.56 C 297.04 153.76 302.32 156.23 307.33 154.33 C 309.70 153.52 310.86 149.90 308.68 148.31 C 304.14 145.43 298.14 145.53 293.99 141.93 C 289.25 137.80 290.91 129.05 296.70 126.73 Z" />
<path fill="#0572a2" d=" M 318.85 125.79 C 327.73 125.72 336.62 125.72 345.51 125.79 C 345.47 127.45 345.42 129.11 345.34 130.77 C 342.06 130.78 338.79 130.77 335.52 130.77 C 335.47 140.38 335.59 150.00 335.45 159.61 C 333.21 159.72 330.97 159.69 328.74 159.50 C 328.76 149.92 328.74 140.35 328.75 130.78 C 325.46 130.77 322.17 130.78 318.88 130.73 C 318.84 129.08 318.83 127.43 318.85 125.79 Z" />
<path fill="#0572a2" d=" M 356.34 125.89 C 358.50 125.83 360.65 125.83 362.82 125.90 C 367.35 137.07 372.15 148.14 376.68 159.31 C 374.42 159.55 371.95 160.32 369.79 159.23 C 368.39 156.85 367.47 154.23 366.33 151.73 C 361.79 151.79 357.24 151.78 352.70 151.75 C 350.90 154.67 350.75 160.79 345.98 159.74 C 344.79 159.65 343.61 159.53 342.43 159.37 C 346.94 148.16 351.74 137.06 356.34 125.89 Z" />
<path fill="#0572a2" d=" M 373.68 125.75 C 382.56 125.75 391.44 125.74 400.32 125.75 C 400.30 127.42 400.28 129.10 400.23 130.77 C 396.99 130.78 393.75 130.77 390.52 130.78 C 390.49 140.36 390.55 149.94 390.48 159.52 C 388.17 159.70 385.85 159.71 383.53 159.55 C 383.42 149.96 383.52 140.37 383.48 130.77 C 380.22 130.77 376.96 130.78 373.71 130.77 C 373.67 129.09 373.66 127.42 373.68 125.75 Z" />
<path fill="#0572a2" d=" M 405.00 125.75 C 411.78 125.75 418.55 125.74 425.33 125.75 C 425.32 127.42 425.30 129.09 425.27 130.77 C 420.77 130.78 416.27 130.76 411.78 130.78 C 411.77 133.52 411.77 136.26 411.77 139.00 C 415.34 139.00 418.92 139.00 422.50 138.98 C 422.58 140.74 422.58 142.51 422.52 144.27 C 418.94 144.25 415.37 144.25 411.80 144.23 C 411.76 147.73 411.77 151.23 411.77 154.74 C 416.62 154.76 421.47 154.74 426.33 154.75 C 426.32 156.42 426.30 158.09 426.27 159.77 C 419.18 159.78 412.09 159.76 405.00 159.78 C 405.00 148.43 405.00 137.09 405.00 125.75 Z" />
<path fill="#0572a2" d=" M 478.00 125.75 C 484.81 125.76 491.63 125.72 498.44 125.77 C 498.39 127.44 498.34 129.11 498.26 130.78 C 493.84 130.78 489.42 130.76 485.00 130.77 C 485.00 133.52 485.00 136.26 485.00 139.00 C 488.51 139.00 492.03 139.00 495.54 138.97 C 495.66 140.73 495.67 142.50 495.57 144.27 C 492.04 144.25 488.52 144.25 485.00 144.25 C 485.00 149.31 484.98 154.37 485.03 159.43 C 482.68 159.73 480.32 159.73 477.98 159.44 C 478.03 148.21 477.99 136.98 478.00 125.75 Z" />
<path fill="#fefeff" d=" M 453.23 131.15 C 456.88 129.50 461.64 130.97 463.54 134.54 C 466.05 139.20 466.04 145.02 464.14 149.89 C 462.49 154.17 457.03 156.34 452.94 154.21 C 448.67 152.38 447.54 147.21 447.47 143.04 C 447.35 138.55 448.70 133.10 453.23 131.15 Z" />
<path fill="#fefeff" d=" M 359.53 134.85 C 361.05 138.86 362.72 142.80 364.37 146.75 C 361.14 146.75 357.91 146.75 354.68 146.74 C 356.38 142.81 358.11 138.89 359.53 134.85 Z" />
<path fill="#0572a2" d=" M 821.64 169.94 C 824.57 165.06 830.70 163.77 835.99 163.72 C 840.62 163.80 845.86 164.09 849.53 167.30 C 851.19 170.86 850.00 175.61 847.09 178.20 C 845.98 179.58 844.69 177.85 843.55 177.45 C 841.45 175.83 837.85 176.09 836.73 178.75 C 835.25 182.36 835.90 186.41 835.77 190.22 C 838.68 190.25 841.63 190.02 844.53 190.47 C 846.49 193.82 846.43 198.16 844.60 201.56 C 841.67 201.96 838.71 201.75 835.78 201.78 C 835.78 217.56 835.75 233.34 835.79 249.12 C 830.33 251.14 824.26 250.97 818.75 249.26 C 818.76 233.26 818.72 217.25 818.77 201.25 C 816.38 200.53 814.00 199.81 811.62 199.12 C 811.79 196.14 812.14 193.18 812.70 190.25 C 814.70 190.23 816.72 190.23 818.74 190.23 C 818.84 183.43 817.93 176.02 821.64 169.94 Z" />
<path fill="#0572a2" d=" M 1015.28 165.21 C 1020.80 163.21 1026.82 163.40 1032.40 165.06 C 1032.62 174.37 1032.50 183.69 1032.47 193.01 C 1039.52 188.68 1048.43 188.62 1056.12 191.14 C 1061.11 192.80 1065.41 196.38 1067.88 201.03 C 1072.28 208.92 1072.38 218.28 1071.83 227.05 C 1071.16 234.11 1068.88 241.60 1063.23 246.26 C 1056.76 251.44 1047.84 252.25 1039.93 250.91 C 1036.09 250.37 1032.67 248.41 1029.65 246.08 C 1028.61 248.14 1027.48 250.60 1024.99 251.15 C 1021.56 252.30 1018.13 250.61 1015.23 248.93 C 1015.27 221.03 1015.15 193.12 1015.28 165.21 Z" />
<path fill="#0572a2" d=" M 1083.26 165.19 C 1088.82 163.22 1094.94 163.30 1100.49 165.26 C 1100.56 189.53 1100.45 213.80 1100.55 238.06 C 1099.99 240.82 1102.90 241.10 1104.83 241.64 C 1105.21 243.11 1105.59 244.59 1105.99 246.08 C 1100.60 252.88 1089.01 253.49 1083.18 246.96 C 1083.32 219.70 1083.15 192.45 1083.26 165.19 Z" />
<path fill="#0572a2" d=" M 879.97 172.66 C 888.86 169.25 898.54 168.51 907.98 168.79 C 916.42 169.21 925.54 171.08 931.72 177.28 C 938.20 183.84 939.10 194.13 936.51 202.62 C 934.06 210.66 926.89 216.59 918.93 218.77 C 912.15 220.92 904.98 220.12 898.00 220.25 C 898.00 229.87 897.98 239.49 898.01 249.11 C 892.21 251.12 885.76 251.10 879.99 249.01 C 879.99 223.56 880.04 198.11 879.97 172.66 Z" />
<path fill="#0572a2" d=" M 1229.48 175.43 C 1235.18 170.71 1242.78 169.12 1250.00 168.78 C 1258.66 168.41 1267.61 169.57 1275.36 173.64 C 1277.93 174.55 1277.31 177.88 1276.99 179.98 C 1276.50 183.12 1274.29 185.51 1271.93 187.44 C 1265.87 183.99 1258.97 181.79 1251.95 182.03 C 1248.08 182.31 1243.78 183.18 1241.25 186.39 C 1238.68 189.28 1239.29 194.51 1242.97 196.20 C 1251.81 200.95 1261.94 202.63 1270.99 206.92 C 1276.00 209.31 1280.60 213.27 1282.32 218.71 C 1284.94 227.39 1282.99 237.86 1275.94 243.95 C 1268.63 250.35 1258.37 251.60 1249.02 251.46 C 1239.36 250.95 1228.90 249.12 1221.40 242.58 C 1220.53 237.91 1222.62 232.92 1226.57 230.28 C 1234.39 235.29 1243.65 238.23 1252.96 238.24 C 1257.50 238.13 1263.11 236.61 1264.86 231.90 C 1266.31 228.13 1264.35 223.80 1260.68 222.25 C 1251.03 217.83 1240.01 216.70 1230.89 211.11 C 1218.83 203.55 1218.79 184.17 1229.48 175.43 Z" />
<path fill="#0572a2" d=" M 1114.70 171.48 C 1120.32 169.06 1126.67 169.38 1132.43 171.14 C 1132.54 175.17 1132.51 179.20 1132.52 183.23 C 1126.84 185.45 1120.43 185.28 1114.74 183.21 C 1114.75 179.30 1114.76 175.39 1114.70 171.48 Z" />
<path fill="#0572a2" d=" M 1464.71 171.46 C 1470.31 169.06 1476.62 169.39 1482.37 171.11 C 1482.56 175.15 1482.51 179.19 1482.52 183.23 C 1476.83 185.40 1470.42 185.34 1464.73 183.21 C 1464.75 179.29 1464.75 175.38 1464.71 171.46 Z" />
<path fill="#0572a2" d=" M 302.49 171.61 C 307.58 170.75 313.41 170.94 317.63 174.28 C 321.43 177.28 322.78 182.28 323.00 186.92 C 323.22 191.89 322.65 197.35 319.34 201.31 C 316.11 205.18 310.74 206.26 305.93 206.01 C 301.30 205.91 296.33 204.11 293.82 199.98 C 290.73 194.86 290.79 188.50 291.68 182.78 C 292.54 177.26 296.86 172.44 302.49 171.61 Z" />
<path fill="#0572a2" d=" M 328.51 172.63 C 334.57 171.08 341.34 170.19 347.23 172.81 C 354.14 175.95 354.08 187.06 347.72 190.75 C 344.12 193.17 339.62 192.75 335.51 192.82 C 335.45 196.84 335.68 200.87 335.43 204.90 C 333.36 206.20 330.81 205.49 328.54 205.37 C 328.43 194.46 328.49 183.54 328.51 172.63 Z" />
<path fill="#0572a2" d=" M 357.50 172.55 C 363.75 171.07 370.86 170.04 376.76 173.22 C 382.83 176.64 382.67 186.35 377.24 190.29 C 373.58 193.16 368.65 192.78 364.27 192.79 C 364.24 196.98 364.25 201.18 364.25 205.37 C 362.07 205.59 359.83 205.93 357.71 205.23 C 357.17 194.36 357.63 183.44 357.50 172.55 Z" />
<path fill="#0572a2" d=" M 395.57 171.73 C 400.94 170.69 407.17 170.86 411.59 174.49 C 415.46 177.80 416.56 183.18 416.73 188.05 C 416.77 193.03 415.86 198.48 412.23 202.18 C 408.45 205.76 402.86 206.42 397.89 205.89 C 393.46 205.48 388.96 203.16 386.97 199.03 C 384.27 193.64 384.30 187.22 385.67 181.46 C 386.83 176.67 390.70 172.70 395.57 171.73 Z" />
<path fill="#0572a2" d=" M 422.32 172.48 C 428.85 171.04 436.38 169.98 442.38 173.65 C 448.70 178.23 446.81 189.17 439.58 191.84 C 442.52 196.21 445.35 200.64 448.24 205.05 C 445.81 205.42 443.24 206.16 440.85 205.26 C 437.89 201.98 436.19 197.80 433.47 194.34 C 432.52 192.99 430.75 192.89 429.33 192.41 C 429.20 196.71 429.26 201.01 429.25 205.32 C 426.91 205.66 424.55 205.67 422.23 205.29 C 422.28 194.35 422.12 183.41 422.32 172.48 Z" />
<path fill="#0572a2" d=" M 448.85 171.57 C 457.72 171.40 466.60 171.51 475.48 171.51 C 475.44 173.26 475.37 175.02 475.28 176.78 C 472.02 176.77 468.77 176.77 465.52 176.77 C 465.47 186.35 465.60 195.92 465.44 205.49 C 463.21 205.61 460.98 205.57 458.77 205.37 C 458.73 195.85 458.74 186.32 458.76 176.80 C 455.48 176.78 452.21 176.78 448.94 176.71 C 448.88 175.00 448.85 173.28 448.85 171.57 Z" />
<path fill="#0572a2" d=" M 479.74 171.79 C 482.07 171.55 484.43 171.58 486.76 171.90 C 486.82 178.94 486.70 185.98 486.78 193.02 C 486.80 195.80 487.59 199.17 490.45 200.36 C 492.67 201.11 495.53 201.08 497.31 199.33 C 499.28 197.47 499.39 194.56 499.49 192.04 C 499.51 185.35 499.48 178.66 499.47 171.97 C 501.78 171.58 504.12 171.52 506.46 171.76 C 506.50 178.82 506.62 185.89 506.44 192.95 C 506.25 197.56 504.69 203.06 499.95 204.89 C 495.32 206.53 489.88 206.58 485.40 204.46 C 481.21 202.36 479.95 197.32 479.79 193.02 C 479.65 185.94 479.80 178.87 479.74 171.79 Z" />
<path fill="#0572a2" d=" M 513.25 171.85 C 515.44 171.62 517.64 171.57 519.84 171.71 C 524.72 179.21 529.53 186.75 534.48 194.19 C 534.51 186.71 534.43 179.24 534.54 171.76 C 536.86 171.52 539.21 171.58 541.52 171.98 C 541.48 182.32 541.55 192.67 541.51 203.01 C 542.17 206.90 537.12 205.42 534.79 205.39 C 529.92 198.01 525.17 190.55 520.25 183.19 C 520.24 190.58 520.27 197.96 520.24 205.34 C 517.90 205.67 515.53 205.64 513.20 205.23 C 513.27 194.11 513.19 182.98 513.25 171.85 Z" />
<path fill="#0572a2" d=" M 548.46 171.89 C 550.80 171.52 553.18 171.54 555.52 171.97 C 555.47 183.12 555.58 194.26 555.46 205.41 C 553.15 205.60 550.84 205.60 548.54 205.40 C 548.41 194.23 548.55 183.06 548.46 171.89 Z" />
<path fill="#0572a2" d=" M 559.85 171.60 C 568.71 171.35 577.58 171.55 586.44 171.48 C 586.64 173.25 586.58 175.03 586.30 176.79 C 583.12 176.77 579.95 176.77 576.78 176.77 C 576.78 186.26 576.74 195.74 576.80 205.23 C 574.46 205.65 572.09 205.67 569.75 205.34 C 569.74 195.82 569.74 186.31 569.76 176.79 C 566.52 176.78 563.29 176.79 560.06 176.69 C 559.97 174.99 559.89 173.29 559.85 171.60 Z" />
<path fill="#0572a2" d=" M 587.53 172.04 C 589.90 171.55 592.33 171.45 594.73 171.87 C 597.22 176.36 599.60 180.92 602.26 185.32 C 604.81 180.85 606.95 176.10 610.02 171.94 C 612.21 171.15 614.54 171.76 616.79 171.94 C 613.54 178.53 609.27 184.56 606.02 191.15 C 605.40 195.79 605.92 200.53 605.79 205.21 C 603.46 205.65 601.09 205.67 598.76 205.35 C 598.59 200.71 599.07 196.03 598.53 191.41 C 595.19 184.78 590.99 178.61 587.53 172.04 Z" />
<path fill="#fefeff" d=" M 304.53 176.70 C 307.71 175.64 311.51 176.74 313.52 179.45 C 316.01 182.76 316.25 187.13 315.94 191.10 C 315.60 194.31 314.39 197.74 311.59 199.60 C 308.29 201.65 303.44 201.17 300.93 198.08 C 298.10 194.74 297.79 189.97 298.29 185.80 C 298.70 182.03 300.59 177.84 304.53 176.70 Z" />
<path fill="#fefeff" d=" M 335.55 176.59 C 337.98 176.50 340.64 175.88 342.89 177.14 C 346.40 179.04 346.33 184.96 342.76 186.77 C 340.53 187.90 337.94 187.65 335.52 187.85 C 335.50 184.10 335.50 180.34 335.55 176.59 Z" />
<path fill="#fefeff" d=" M 364.38 177.16 C 367.87 174.87 374.81 176.81 374.26 181.96 C 374.56 187.35 368.28 188.06 364.28 187.86 C 364.29 184.29 364.05 180.71 364.38 177.16 Z" />
<path fill="#fefeff" d=" M 398.48 176.66 C 402.42 175.39 407.00 177.71 408.42 181.58 C 410.33 186.40 410.28 192.16 407.86 196.80 C 405.37 201.79 397.38 202.22 394.23 197.69 C 391.68 194.04 391.38 189.28 392.05 185.00 C 392.60 181.40 394.68 177.57 398.48 176.66 Z" />
<path fill="#fefeff" d=" M 429.23 176.71 C 431.46 176.47 433.83 175.99 435.96 176.96 C 440.23 178.45 440.25 185.53 436.10 187.16 C 433.87 187.72 431.53 187.44 429.26 187.53 C 429.25 183.92 429.25 180.31 429.23 176.71 Z" />
<path fill="#fefeff" d=" M 898.00 182.91 C 903.13 182.02 908.72 181.18 913.63 183.45 C 921.48 187.31 921.92 200.06 914.61 204.69 C 909.70 207.93 903.53 206.80 898.00 206.99 C 898.00 198.96 898.00 190.93 898.00 182.91 Z" />
<path fill="#0572a2" d=" M 767.18 190.32 C 776.04 188.67 785.97 189.17 793.65 194.33 C 800.43 198.87 803.80 206.99 804.55 214.88 C 805.33 223.63 804.67 233.10 799.63 240.60 C 795.35 247.17 787.54 250.62 779.92 251.25 C 771.32 252.12 761.88 250.64 755.22 244.76 C 749.16 239.30 746.83 230.92 746.51 223.02 C 746.16 214.62 747.43 205.59 752.77 198.80 C 756.30 194.30 761.63 191.48 767.18 190.32 Z" />
<path fill="#0572a2" d=" M 947.21 191.91 C 952.75 189.78 959.04 189.67 964.56 191.94 C 964.46 204.30 964.52 216.66 964.52 229.03 C 964.50 232.65 965.63 237.16 969.55 238.34 C 974.80 240.07 979.94 237.09 983.71 233.64 C 983.78 219.68 983.75 205.72 983.73 191.77 C 989.22 189.78 995.32 189.79 1000.79 191.84 C 1000.79 207.22 1000.71 222.61 1000.81 238.00 C 1000.38 240.75 1003.12 241.09 1005.13 241.53 C 1005.61 243.04 1006.05 244.55 1006.51 246.08 C 1002.49 251.72 994.23 253.14 988.38 249.63 C 986.10 248.37 986.57 245.50 986.37 243.34 C 982.68 246.97 978.23 250.09 973.01 250.92 C 966.26 252.10 958.42 251.66 953.03 246.95 C 948.51 243.01 947.23 236.72 947.22 230.98 C 947.22 217.96 947.26 204.93 947.21 191.91 Z" />
<path fill="#0572a2" d=" M 1115.20 191.84 C 1120.65 189.68 1126.74 189.89 1132.25 191.77 C 1132.26 210.89 1132.23 230.01 1132.27 249.14 C 1126.79 251.10 1120.70 251.04 1115.21 249.18 C 1115.24 230.07 1115.25 210.95 1115.20 191.84 Z" />
<path fill="#0572a2" d=" M 1162.10 190.66 C 1171.04 188.39 1180.62 189.50 1189.14 192.89 C 1189.76 197.20 1188.75 201.81 1185.18 204.59 C 1179.84 202.52 1173.63 201.03 1168.12 203.31 C 1163.23 205.53 1161.10 211.07 1160.68 216.10 C 1160.22 221.76 1160.27 227.85 1163.10 232.94 C 1165.00 236.49 1168.89 238.78 1172.92 238.77 C 1177.64 239.09 1182.05 237.08 1186.13 234.94 C 1188.78 237.21 1190.39 240.56 1189.75 244.10 C 1189.91 246.27 1187.48 246.97 1186.00 247.90 C 1176.65 252.30 1165.08 253.02 1155.77 248.17 C 1148.50 244.35 1144.77 236.23 1143.71 228.41 C 1142.66 220.05 1142.97 211.19 1146.52 203.42 C 1149.41 197.06 1155.35 192.33 1162.10 190.66 Z" />
<path fill="#0572a2" d=" M 1303.97 193.02 C 1311.03 189.33 1319.47 188.64 1327.18 190.38 C 1333.55 191.78 1339.16 196.27 1341.75 202.27 C 1345.09 209.62 1344.84 217.88 1344.76 225.76 C 1332.22 225.79 1319.67 225.74 1307.13 225.79 C 1307.77 230.69 1310.02 236.02 1315.05 237.79 C 1322.79 240.75 1330.65 236.72 1337.72 233.86 C 1341.14 236.43 1343.20 241.77 1340.69 245.58 C 1333.87 250.31 1325.21 251.77 1317.05 251.40 C 1308.75 251.05 1300.16 247.64 1295.38 240.57 C 1289.81 232.23 1289.10 221.51 1290.87 211.88 C 1292.23 204.10 1296.88 196.75 1303.97 193.02 Z" />
<path fill="#0572a2" d=" M 1355.21 191.84 C 1360.59 189.76 1366.62 189.81 1372.03 191.80 C 1372.01 192.75 1371.98 194.63 1371.97 195.57 C 1375.60 191.26 1381.27 188.59 1386.96 189.66 C 1389.78 190.24 1393.47 191.57 1393.87 194.89 C 1394.61 198.62 1393.16 202.45 1390.31 204.91 C 1387.41 203.42 1384.33 201.81 1380.97 202.24 C 1376.02 202.39 1372.17 207.21 1372.51 212.03 C 1372.52 224.37 1372.48 236.71 1372.55 249.05 C 1367.01 251.17 1360.77 251.05 1355.21 249.11 C 1355.24 230.02 1355.24 210.93 1355.21 191.84 Z" />
<path fill="#0572a2" d=" M 1395.65 192.05 C 1401.01 190.06 1407.13 189.47 1412.55 191.61 C 1416.00 198.11 1418.11 205.28 1421.08 212.03 C 1423.55 217.64 1425.30 223.51 1426.78 229.45 C 1429.90 216.32 1435.90 204.15 1440.66 191.58 C 1446.18 189.70 1452.18 189.96 1457.62 192.00 C 1450.21 211.06 1442.75 230.14 1434.94 249.03 C 1431.37 251.04 1426.98 250.59 1423.05 250.40 C 1421.22 249.98 1418.53 250.09 1417.93 247.89 C 1410.41 229.31 1403.06 210.67 1395.65 192.05 Z" />
<path fill="#0572a2" d=" M 1464.99 191.90 C 1470.50 189.71 1476.68 189.84 1482.26 191.78 C 1482.23 210.92 1482.28 230.06 1482.23 249.20 C 1476.66 251.06 1470.51 251.09 1464.99 249.10 C 1465.01 230.03 1465.01 210.97 1464.99 191.90 Z" />
<path fill="#0572a2" d=" M 1506.12 193.06 C 1516.27 187.68 1528.68 188.88 1539.10 192.86 C 1539.83 197.20 1538.59 201.69 1535.16 204.58 C 1529.85 202.56 1523.73 201.05 1518.25 203.26 C 1513.22 205.35 1511.09 211.01 1510.64 216.06 C 1510.24 221.93 1510.16 228.31 1513.34 233.51 C 1515.52 237.13 1519.87 239.02 1524.03 238.78 C 1528.36 238.83 1532.34 236.85 1536.12 234.96 C 1539.42 237.54 1540.17 241.75 1539.67 245.70 C 1530.67 251.66 1518.79 253.20 1508.63 249.52 C 1502.58 247.34 1497.90 242.25 1495.68 236.29 C 1492.93 229.21 1492.83 221.42 1493.55 213.96 C 1494.47 205.67 1498.43 197.05 1506.12 193.06 Z" />
<path fill="#0572a2" d=" M 1563.57 191.51 C 1572.25 188.56 1582.60 188.41 1590.58 193.39 C 1597.62 197.95 1600.39 206.58 1601.00 214.56 L 1601.00 225.77 C 1588.47 225.80 1575.93 225.72 1563.41 225.81 C 1564.13 230.89 1566.69 236.31 1571.92 238.01 C 1579.57 240.38 1587.39 236.92 1594.17 233.54 C 1596.96 236.60 1599.52 241.24 1597.18 245.26 C 1592.12 249.41 1585.33 250.78 1578.96 251.36 C 1569.56 252.10 1559.08 249.72 1552.87 242.14 C 1546.30 234.05 1545.63 222.92 1546.98 213.00 C 1548.30 203.61 1554.41 194.70 1563.57 191.51 Z" />
<path fill="#0572a2" d=" M 612.63 198.07 C 615.42 197.98 618.22 198.02 621.02 198.14 C 621.64 199.71 622.23 201.29 622.83 202.88 C 623.69 200.96 624.59 199.02 625.90 197.35 C 626.38 200.10 626.64 202.89 626.79 205.69 C 625.20 205.14 625.27 203.29 624.93 201.95 C 624.15 202.99 623.91 204.59 622.56 205.06 C 622.20 204.29 621.46 202.76 621.09 201.99 C 620.70 203.31 620.30 204.62 619.90 205.94 C 619.12 204.07 619.29 202.03 619.60 200.08 C 618.89 199.48 618.16 198.92 617.43 198.37 C 616.90 200.79 616.77 203.27 616.38 205.71 C 613.65 203.86 617.12 198.67 612.63 198.07 Z" />
<path fill="#fefeff" d=" M 772.41 202.52 C 776.27 201.68 780.88 202.26 783.57 205.42 C 786.70 209.16 787.40 214.24 787.52 218.96 C 787.60 224.21 787.39 229.87 784.43 234.42 C 780.45 240.61 769.70 240.27 766.33 233.62 C 763.14 227.63 763.24 220.46 764.12 213.89 C 764.76 209.10 767.34 203.79 772.41 202.52 Z" />
<path fill="#fefeff" d=" M 1032.44 205.74 C 1036.64 202.23 1042.74 201.14 1047.84 203.17 C 1052.68 205.37 1054.25 211.09 1054.65 215.96 C 1055.00 222.00 1055.22 228.59 1052.13 234.02 C 1047.97 240.32 1038.35 239.96 1032.80 235.78 C 1032.07 225.81 1032.80 215.74 1032.44 205.74 Z" />
<path fill="#fefeff" d=" M 1311.96 203.84 C 1315.82 201.33 1321.88 201.43 1324.84 205.31 C 1327.08 208.26 1327.14 212.14 1327.70 215.66 C 1320.83 215.82 1313.95 215.75 1307.09 215.70 C 1307.59 211.46 1308.18 206.52 1311.96 203.84 Z" />
<path fill="#fefeff" d=" M 1566.10 206.10 C 1569.35 201.15 1577.86 200.61 1581.33 205.59 C 1583.39 208.52 1583.53 212.26 1583.90 215.71 C 1577.09 215.79 1570.28 215.73 1563.47 215.75 C 1563.89 212.45 1564.07 208.89 1566.10 206.10 Z" />
<path fill="#fefeff" d=" M 338.03 276.74 C 347.17 276.91 355.26 272.11 364.02 270.37 C 366.08 271.62 368.23 272.72 370.45 273.68 C 364.09 275.58 357.54 277.01 351.42 279.58 C 346.97 282.21 342.13 284.30 336.87 284.37 C 332.05 284.29 327.83 287.21 323.02 287.09 C 317.80 287.36 313.13 289.95 308.09 291.06 C 302.75 292.26 297.33 293.12 291.94 294.11 C 291.96 291.40 292.09 288.69 292.50 286.01 C 294.37 286.57 296.48 287.66 298.30 286.31 C 310.19 279.15 324.29 276.53 338.03 276.74 Z" />
</svg>
